<?xml version="1.0" encoding="utf-8"?>
<!-- Generator: Adobe Illustrator 22.1.0, SVG Export Plug-In . SVG Version: 6.00 Build 0)  -->
<svg version="1.1" id="Layer_1" xmlns="http://www.w3.org/2000/svg" xmlns:xlink="http://www.w3.org/1999/xlink" x="0px" y="0px"
	 viewBox="0 0 199.5 24.5" style="enable-background:new 0 0 199.5 24.5;" xml:space="preserve">
<style type="text/css">
	.st0{fill:#FFFFFF;}
</style>
<g>
	<path class="st0" d="M125,24.4c-2,0-4,0-5.9,0c-3.7,0-7.7-3.8-7.7-7.5c-0.1-3.1-0.1-6.1,0-9.2c0.1-3.5,4.1-7.4,7.5-7.4
		c4.1,0,8.1,0,12.2,0c3.6,0,7.4,3.6,7.5,7.3c0.1,3.2,0.1,6.5,0,9.7c-0.1,3.4-4,7.1-7.3,7.1C129.2,24.4,127.1,24.4,125,24.4z
		 M131.4,12.6C131.4,12.6,131.4,12.6,131.4,12.6c0-1.9,0-3.8,0-5.8c0-0.8-0.2-1.2-1.1-1.1c-3.5,0-7,0-10.4,0c-0.7,0-1.1,0.2-1.1,1
		c0,3.8,0,7.7,0,11.5c0,0.6,0.1,1,0.9,1c3.5,0,7.1,0.1,10.6,0.1c0.8,0,1.1-0.3,1.1-1.2C131.4,16.3,131.4,14.4,131.4,12.6z"/>
	<path class="st0" d="M39.9,24.4c-2,0-4.1,0-6.1,0c-3.5,0-7.5-3.9-7.5-7.3c-0.1-3.1,0-6.2,0-9.3c0-3.4,4.1-7.4,7.5-7.4c4,0,8,0,12,0
		c3.9,0,7.7,3.7,7.7,7.6c0,3,0,6,0,9c0,3.7-3.9,7.5-7.5,7.5C44,24.4,42,24.4,39.9,24.4z M33.8,12.5c0,1.9,0,3.7,0,5.6
		c0,0.5-0.2,1.1,0.7,1.1c3.7,0,7.3,0.3,11,0.1c0.8,0,0.9-0.5,0.9-1.2c0-3.8,0-7.6,0-11.3c0-0.9-0.3-1.1-1.1-1.1c-3.5,0-7,0-10.4,0
		c-0.8,0-1,0.3-1,1C33.8,8.6,33.8,10.6,33.8,12.5z"/>
	<path class="st0" d="M142.1,12.3c0-3.6,0-7.2,0-10.8c0-1.1,0.4-1.4,1.4-1.4c5.9,0,11.9,0,17.8,0c3.9,0,7.8,3.8,7.9,7.8
		c0.1,5.1,0,10.2,0.1,15.3c0,0.9-0.3,1.3-1.2,1.2c-1.6-0.1-3.2-0.1-4.9,0c-1.2,0.1-1.4-0.4-1.3-1.5c0-5.2,0-10.4,0-15.6
		c0-1.2-0.2-1.7-1.5-1.6c-3.1,0.1-6.2,0.1-9.3,0c-1.1,0-1.4,0.3-1.4,1.4c0.1,5.2,0,10.4,0.1,15.6c0,1.4-0.3,1.8-1.7,1.7
		c-1.6-0.1-3.2-0.1-4.9,0c-1,0-1.2-0.3-1.2-1.2c0.1-3.7,0-7.3,0-11C141.9,12.3,142,12.3,142.1,12.3z"/>
	<path class="st0" d="M172.3,12.2c0-3.6,0-7.2,0-10.8c0-1,0.3-1.3,1.3-1.3c6.2,0,12.3,0,18.5,0c3.4,0,7.2,4,7.3,7.9
		c0.1,5.1,0,10.2,0.1,15.3c0,1-0.4,1.2-1.3,1.2c-1.6-0.1-3.1-0.1-4.7,0c-1.3,0.1-1.5-0.4-1.5-1.6c0.1-5.2,0-10.3,0.1-15.5
		c0-1.3-0.2-1.8-1.6-1.7c-3.1,0.1-6.1,0.1-9.2,0c-1.1,0-1.5,0.3-1.5,1.5c0.1,5.2,0,10.4,0.1,15.6c0,1.2-0.3,1.7-1.6,1.6
		c-1.5-0.1-3.1-0.1-4.7,0c-1.2,0.1-1.6-0.2-1.5-1.5c0.1-3.6,0-7.2,0-10.8C172.2,12.2,172.3,12.2,172.3,12.2z"/>
	<path class="st0" d="M83.1,24.4c-2.8,0-5.2,0-7.6,0c-0.9,0-1.3-0.4-1.8-1c-1.3-1.6-2.7-3.2-3.9-4.9c-0.6-0.7-0.9-0.7-1.4,0
		c-1.2,1.7-2.4,3.3-3.6,4.9c-0.4,0.6-0.8,1-1.6,0.9c-2.6,0-5.1,0-8,0c2.4-3,4.6-5.8,6.8-8.6c0.9-1.2,2.5-2.4,2.5-3.6
		c0-1.2-1.5-2.4-2.4-3.6c-2-2.8-4-5.5-6.1-8.3c0,0,0-0.1,0.1-0.3c2.5,0,5.1,0,7.6,0c0.8,0,1,0.5,1.4,1c1.1,1.5,2.3,2.9,3.3,4.5
		c0.6,0.9,0.9,0.8,1.5,0c1.2-1.6,2.5-3.1,3.8-4.6C74.1,0.3,74.5,0,75.3,0c2.6,0,5.1,0,8,0c-1.9,2.4-3.7,4.7-5.4,6.9
		c-1.4,1.8-2.7,3.6-4.1,5.4c1.3,1.8,2.7,3.5,4,5.3C79.5,19.8,81.2,22,83.1,24.4z"/>
	<path class="st0" d="M99.7,0.2c2.4,0,4.8,0,7.2,0c0.8,0,1.1,0.2,1.2,1.1c0.2,4.5,0.2,4.5-4.3,4.5c-3.4,0-6.7,0-10.1,0
		c-1.1,0-1.6,0.2-1.5,1.5c0.1,3.5,0.1,7.1,0,10.6c0,1.2,0.4,1.4,1.4,1.4c4.3-0.1,8.5,0,12.8-0.1c1.2,0,1.7,0.2,1.6,1.6
		c-0.1,3.7,0,3.7-3.6,3.7c-3.7,0-7.4,0-11.2,0c-3.9,0-8.2-4.4-8.3-8.3c0-2.6,0-5.3,0-7.9c0-3.7,4.2-8,7.9-8
		C95.1,0.2,97.4,0.2,99.7,0.2z"/>
	<path class="st0" d="M0.1,15.4c0-2.3,0-4.6,0-6.8c0.1-5,3.7-8.5,8.7-8.5c4.3,0,8.6,0,12.9,0c1.1,0,1.6,0.2,1.5,1.5c0,4,0,4-3.9,4
		c-3.5,0-7,0-10.4,0c-1.1,0-1.4,0.2-1.4,1.4c0,4.1-0.1,4.1,4.1,4.1c2.9,0,5.9,0,8.8,0c1.1,0,1.6,0.2,1.5,1.5c0,2.9,0,2.9-2.8,2.9
		c-3.4,0-6.8,0-10.2,0c-1.1,0-1.5,0.3-1.4,1.4c0.1,2.2,0,4.3,0,6.5c0,1-0.2,1.4-1.3,1.3c-1.7-0.1-3.5-0.1-5.2,0
		c-0.9,0-1.1-0.3-1.1-1.1c0.1-2.6,0-5.3,0-7.9C0.1,15.4,0.1,15.4,0.1,15.4z"/>
</g>
</svg>
