<?xml version="1.0" encoding="utf-8"?>
<!-- Generator: Adobe Illustrator 22.1.0, SVG Export Plug-In . SVG Version: 6.00 Build 0)  -->
<svg version="1.1" id="Layer_1" xmlns="http://www.w3.org/2000/svg" xmlns:xlink="http://www.w3.org/1999/xlink" x="0px" y="0px"
	 viewBox="0 0 529 144.5" style="enable-background:new 0 0 529 144.5;" xml:space="preserve">
<style type="text/css">
	.st0{fill:#1B2A53;}
	.st1{fill:#A51F28;}
</style>
<g>
	<path class="st0" d="M144.9,0.2c7.3,0,14.6,0,21.8,0c6.1,0,12.2,0,18.2,0c0.3,0,0.6,0,1.1,0c-1,3.4-2,6.7-3,10
		c-1.7,5.6-3.4,11.1-5,16.7c-0.3,0.9-0.7,1.2-1.6,1.2c-22.7,0-45.4-0.2-68.2,0C93,28.4,81.6,35.5,73.9,48.6c-2.2,3.8-3.3,8-4.7,12.1
		c-9.4,27.7-18.7,55.4-28,83.1c-0.1,0.2-0.2,0.4-0.1,0.7c-13.7,0-27.4,0-41,0c0-0.2,0.1-0.5,0.1-0.7c1.4-4.4,2.9-8.7,4.3-13.1
		c8.4-25.7,17-51.3,25.3-77c4.8-15,13-27.6,25.3-37.4C66.6,7.2,79.7,1.9,94.3,0.4c1-0.1,2,0.1,2.9-0.4c5.4,0,10.9,0,16.3,0
		c0.3,0.3,0.6,0.2,0.9,0.2C124.6,0.2,134.8,0.2,144.9,0.2z"/>
	<path class="st0" d="M363.6,144.5c0-8,0-16.1,0-24.1c0-1.1,0.3-1.4,1.4-1.4c6.6,0.1,13.3,0,19.9,0c3.7,0,6.1,2,6.5,5.8
		c0.2,1.6,0.2,3.3-0.1,4.9c-0.6,3.4-2.7,5.2-6.1,5.2c-0.5,0-0.9,0-1.4,0c0,0.5,0.3,0.8,0.6,1c2,2.5,4,5,6,7.5c0.2,0.3,0.7,0.5,0.5,1
		c-2.7,0-5.4,0-8.2,0c0-0.1,0-0.2-0.1-0.3c-2.2-2.7-4.4-5.5-6.6-8.2c-0.8-1-3.3-1.4-4.4-0.9c-0.5,0.3-0.7,0.7-0.7,1.3
		c0,2.7,0,5.4,0,8.1C368.4,144.5,366,144.5,363.6,144.5z M377.4,130.8c1.8,0,3.5,0,5.3,0c1,0,1.6-0.4,1.6-1.5c0-1.3,0-2.6,0-3.8
		c0-1-0.5-1.5-1.5-1.5c-3.5,0-7,0-10.5,0c-1.1,0-1.5,0.5-1.5,1.6c0,1.2,0,2.5,0,3.7c0,1.1,0.5,1.5,1.5,1.5
		C374,130.8,375.7,130.8,377.4,130.8z"/>
	<path class="st0" d="M394.8,144.5c0.2-0.4,0.1-0.8,0.1-1.2c0-7.6,0-15.2,0-22.8c0-1.1,0.2-1.5,1.5-1.5c5.9,0.1,11.8,0.2,17.7,0
		c5.8-0.2,8.6,4.5,8.5,8.6c0,5.6,0,11.3,0,16.9c-2.4,0-4.8,0-7.2,0c0-0.1,0.1-0.1,0.1-0.2c0-6.2,0-12.4,0-18.6
		c0-1.3-0.4-1.6-1.7-1.6c-3.3,0-6.6,0-9.9,0c-1.6,0-1.9,0.3-1.9,2c0,6.1,0,12.3,0,18.4C399.6,144.5,397.2,144.5,394.8,144.5z"/>
	<path class="st0" d="M279.4,144.5c0-8,0-16.1,0-24.1c0-1.1,0.3-1.4,1.4-1.4c6,0.1,12,0.2,18,0c5.5-0.2,8.4,4.3,8.4,8.5
		c0,5.7,0,11.4,0,17c-2.4,0-4.8,0-7.2,0c0-6.3,0-12.6,0-18.9c0-1-0.5-1.5-1.5-1.5c-3.5,0-7,0-10.6,0c-1,0-1.5,0.5-1.5,1.5
		c0,6.3,0,12.6,0,18.9C284.2,144.5,281.8,144.5,279.4,144.5z"/>
	<path class="st0" d="M432.5,144.5c-0.4-0.5-1.2-0.5-1.7-0.8c-2.4-1.4-3.8-3.5-4.1-6.2c-0.4-4-0.5-8,0.1-12c0.6-4,3.8-6.5,7.8-6.5
		c4.8,0,9.5,0,14.3,0c0.9,0,1.1,0.2,1,1.1c-0.1,1.3,0.5,3.1-0.3,3.8c-0.7,0.6-2.4,0.2-3.7,0.2c-3.5,0-7,0-10.6,0
		c-1.4,0-1.7,0.3-1.7,1.7c0,0.8,0,1.5,0,2.3c0,1.4,0.3,1.7,1.7,1.7c3.6,0,7.2,0,10.8,0c1,0,1.9-0.1,2.9,0c1.8,0.3,0.5,1.8,0.8,2.7
		c0.2,0.6,0,1.1-0.9,1.1c-4.5-0.1-9,0-13.4,0c-1.7,0-1.9,0.2-1.9,1.9c0,0.8,0,1.6,0,2.4c0,1.3,0.3,1.6,1.6,1.6c4.5,0,9,0,13.4,0
		c0.9,0,1.2,0.2,1.2,1.2c0,1.3-0.2,2.6,0.1,3.9C444.2,144.5,438.3,144.5,432.5,144.5z"/>
	<path class="st0" d="M342,144.5c-2.2-0.9-4.1-2.1-5.2-4.4c-0.5-1.1-0.9-2.2-0.9-3.5c-0.1-3.4-0.2-6.8,0.1-10.2
		c0.4-4.5,3.6-7.4,8.2-7.4c4.7,0,9.4,0,14.2,0c0.8,0,1.1,0.2,1,1c-0.1,1-0.1,2.1,0,3.1c0.1,0.8-0.2,1-1,1c-4.5,0-9,0-13.4,0
		c-1.6,0-1.9,0.3-1.9,1.9c0,0.7,0,1.4,0,2c0,1.3,0.4,1.7,1.7,1.7c4.5,0,9,0,13.4,0c1,0,1.2,0.3,1.2,1.2c-0.1,2.6,0,2.6-2.5,2.6
		c-4,0-8.1,0-12.1,0c-1.3,0-1.7,0.4-1.7,1.7c0,0.8,0,1.6,0,2.4c0,1.5,0.3,1.8,1.8,1.8c4.4,0,8.8,0,13.2,0c1,0,1.4,0.1,1.3,1.3
		c-0.1,1.3,0,2.6,0,3.8C353.5,144.5,347.8,144.5,342,144.5z"/>
	<path class="st0" d="M317.8,144.5c0-6.3,0-12.6,0-19c0-1-0.5-1.5-1.5-1.5c-2.3,0-4.6,0-6.8,0c-0.7,0-0.9-0.2-0.9-0.9
		c0.1-1.2,0-2.3,0-3.5c0-0.6,0.2-0.7,0.7-0.7c8,0,16,0,24,0c0.6,0,0.8,0.1,0.7,0.7c0,0,0,0.1,0,0.1c0,1.4,0.5,3.1-0.2,3.9
		c-0.7,0.8-2.5,0.2-3.9,0.2c-1.2,0-2.3,0-3.5,0c-1.1,0-1.6,0.5-1.6,1.6c0,6.3,0,12.6,0,18.8C322.6,144.5,320.2,144.5,317.8,144.5z"
		/>
	<path class="st0" d="M462.2,144.5c0-6.3,0-12.6,0-18.8c0-1.1-0.5-1.6-1.6-1.6c-2.2,0-4.5,0-6.7,0c-0.7,0-0.9-0.2-0.9-0.9
		c0.1-1.1,0-2.2,0-3.4c0-0.6,0.1-0.9,0.8-0.8c8,0,16,0,24,0c0.6,0,0.8,0.1,0.7,0.7c0,1.2-0.1,2.3,0,3.5c0,0.7-0.2,0.9-0.9,0.9
		c-2.3,0-4.6,0-6.8,0c-1,0-1.5,0.5-1.5,1.5c0,6.3,0,12.6,0,19C467,144.5,464.6,144.5,462.2,144.5z"/>
	<path class="st0" d="M266.9,144.5c0-8.2,0-16.5-0.1-24.7c0-0.7,0.2-0.8,0.8-0.8c1.8,0,3.5,0.1,5.3,0c0.8,0,1.1,0.2,1.1,1.1
		c0,7.7,0,15.5,0,23.2c0,0.4-0.1,0.8,0.1,1.2C271.7,144.5,269.3,144.5,266.9,144.5z"/>
	<path class="st1" d="M144.9,0.2c-10.2,0-20.3,0-30.5,0c-0.3,0-0.6,0.1-0.9-0.2c10.6,0,21.1,0,31.7,0C145.1,0.1,145,0.1,144.9,0.2z"
		/>
	<path class="st1" d="M224.6,35.1c-1.7,5.7-3.3,11.3-5,16.9c-8.9,30.3-17.7,60.6-26.5,90.9c-0.3,1-0.7,1.4-1.8,1.4
		c-13.3-0.1-26.6,0-39.8,0c-1.1,0-1.3-0.2-1-1.3c10.7-35.6,21.3-71.3,32-107c0.2-0.6,0.2-1.1,1.1-1.1c13.6,0,27.1,0,40.7,0
		C224.3,35,224.4,35.1,224.6,35.1z"/>
	<path class="st0" d="M121,144.3c-6.7,0-13.4,0-20,0c-1,0-1.1-0.2-0.8-1.1c7.4-24.5,14.8-48.9,22.1-73.4c0.2-0.7,0.5-1.1,1.4-1.1
		c13.2,0,26.3,0,39.5,0c1,0,1.2,0.2,0.9,1.2c-7.2,24.4-14.4,48.9-21.6,73.3c-0.2,0.8-0.6,1.1-1.5,1.1
		C134.2,144.3,127.6,144.3,121,144.3z"/>
	<path class="st0" d="M99.2,68.8c5.7,0,11.4,0,17,0c1.1,0,0.6,0.5,0.5,1c-1.1,3.6-2.2,7.2-3.4,10.8c-0.7,2.2-1.3,4.4-2.1,6.6
		c-1.9,5.7-6.8,9.3-12.8,9.4c-10.8,0-21.7,0-32.5,0c-0.8,0-1.1-0.1-0.8-1c1.8-5.7,3.5-11.5,5.3-17.3c1.9-6,6.8-9.6,13.1-9.6
		c5.2,0,10.5,0,15.7,0C99.2,68.7,99.2,68.8,99.2,68.8z"/>
	<path class="st0" d="M175.7,34.9c-2.1,6.7-4,13.1-6.1,19.4c-1.8,5.1-6.9,8.5-12.3,8.5c-10.8,0-21.7,0-32.5,0c-1,0-1.3-0.1-1-1.2
		c1.8-5.6,3.5-11.3,5.2-16.9c1.8-5.9,6.4-9.7,12.6-9.8C152.9,34.8,164.2,34.9,175.7,34.9z"/>
	<path class="st1" d="M237,0.3c-0.5,1.7-1,3.4-1.5,5c-1.3,4.3-2.7,8.7-4.1,13c-1.9,6.1-6.9,9.7-13.3,9.7c-10.6,0-21.3,0-31.9,0
		c-1.2,0-1.3-0.3-1-1.3c1.7-5.6,3.4-11.3,5.1-16.9c1.9-6.1,6.8-9.7,13.2-9.7c11,0,22,0.1,33,0.1C236.6,0.2,236.7,0.3,237,0.3z"/>
	<path class="st0" d="M451.4,95.6c2.6,3.3,4.9,6.3,7.5,9.5c-1.5,0-2.8,0-4.1,0c-1.4,0-3,0.4-4.1-0.1c-1.1-0.5-1.8-2-2.7-3.1
		c-1.3-1.6-2.5-3.2-3.8-4.8c-1-1.3-3.2-1.9-4.8-1.3c-0.7,0.3-0.8,0.8-0.8,1.5c0,2.3,0,4.6,0,6.8c0,0.8-0.1,1.1-1,1.1
		c-1.7-0.1-3.4-0.1-5.2,0c-0.7,0-0.9-0.1-0.9-0.9c0-7.9,0-15.8,0-23.6c0-0.7,0.1-0.9,0.8-0.9c7,0,14.1,0,21.1,0c2.8,0,5,2,5.6,4.9
		c0.4,2,0.4,4.2,0,6.2c-0.6,3-2.9,4.8-5.9,4.9C452.6,95.6,452.2,95.6,451.4,95.6z M445.4,91.5c1.8,0,3.5,0,5.3,0
		c1,0,1.5-0.4,1.5-1.4c0-1.3,0-2.6,0-3.9c0-0.9-0.5-1.4-1.4-1.4c-3.6,0-7.1,0-10.7,0c-1,0-1.4,0.5-1.4,1.5c0,1.3,0,2.6,0,3.8
		c0,1,0.5,1.4,1.5,1.4C441.8,91.4,443.6,91.5,445.4,91.5z"/>
	<path class="st0" d="M310.8,92.5c0-3.9,0-7.8,0-11.8c0-0.8,0.2-1,1-1c6.4,0,12.7,0,19.1,0c3.9,0,7.2,3,7.6,7.1
		c0.3,3.7,0.4,7.5,0,11.3c-0.5,4.1-3.8,7.2-8,7.1c-6.2-0.2-12.4-0.1-18.6,0c-0.8,0-1.1-0.2-1.1-1C310.8,100.2,310.8,96.3,310.8,92.5
		z M317.9,92.4c0,2.1,0,4.2,0,6.2c0,1,0.4,1.5,1.5,1.5c3.5,0,7,0,10.5,0c1.1,0,1.5-0.5,1.5-1.5c0-4.1,0-8.1,0-12.2
		c0-1.1-0.5-1.6-1.6-1.6c-3.4,0-6.9,0-10.3,0c-1.3,0-1.6,0.4-1.6,1.7C317.9,88.4,317.9,90.4,317.9,92.4z"/>
	<path class="st0" d="M502.4,95.9c0,2.8,0,5.5,0,8.3c0,0.7-0.2,1-0.9,1c-1.8-0.1-3.6,0-5.4,0c-0.6,0-0.8-0.2-0.8-0.8
		c0-2.4,0-4.7,0-7.1c0-1.1-0.5-1.6-1.6-1.6c-3.4,0-6.9,0-10.3,0c-1.3,0-1.7,0.4-1.7,1.6c0,2.3,0,4.6,0,6.8c0,0.8-0.2,1-1,1
		c-1.8-0.1-3.5-0.1-5.3,0c-0.7,0-0.9-0.2-0.9-0.9c0-5.4,0-10.9,0-16.3c0-3.9,2.8-8.5,8.4-8.3c3.7,0.1,7.4,0.1,11,0
		c5.3-0.2,8.3,4.2,8.3,8.3C502.4,90.6,502.4,93.3,502.4,95.9z M488.6,91.5c1.8,0,3.6,0,5.4,0c0.9,0,1.3-0.5,1.4-1.3
		c0.1-1.4,0-2.7,0-4.1c0-0.9-0.5-1.3-1.3-1.3c-3.6,0-7.2,0-10.8,0c-0.9,0-1.4,0.5-1.4,1.3c0,1.4,0,2.7,0,4.1c0,0.9,0.5,1.4,1.5,1.3
		C485.1,91.4,486.8,91.5,488.6,91.5z"/>
	<path class="st0" d="M389.9,65.8c-1.8,0-3.7,0-5.5,0c-4.4,0-7.4-2.3-8-6.6c-0.6-4.1-0.6-8.4,0.1-12.5c0.7-3.9,3.8-6.2,7.8-6.2
		c3.8,0,7.5,0.1,11.3,0c4.8-0.2,7.7,3.2,8.1,6.6c0.5,4.2,0.6,8.5-0.1,12.8c-0.5,3-3.3,6.3-7.7,6.1C393.8,65.7,391.8,65.8,389.9,65.8
		z M396.7,53.2c0-2,0-4,0-6c0-1.4-0.3-1.7-1.7-1.7c-3.4,0-6.8,0-10.2,0c-1.3,0-1.7,0.4-1.7,1.6c0,4,0,8,0,12c0,1.3,0.4,1.7,1.7,1.7
		c3.4,0,6.7,0,10.1,0c1.5,0,1.8-0.3,1.8-1.9C396.7,57,396.7,55.1,396.7,53.2z"/>
	<path class="st0" d="M307.6,65.8c-1.9,0-3.8-0.1-5.8,0c-4.7,0.3-7.8-3.6-8-7.5c-0.2-3.4-0.2-6.9,0-10.3c0.2-4.1,3.4-7.8,8.1-7.6
		c3.8,0.2,7.7,0.1,11.5,0c5.1-0.2,7.8,4.2,7.9,7.5c0.1,3.5,0.1,7,0,10.4c-0.2,3.8-3.3,7.7-7.9,7.5C311.5,65.7,309.5,65.8,307.6,65.8
		z M314.4,53.1c0-2,0-4.1,0-6.1c0-1-0.5-1.5-1.5-1.5c-3.5,0-7,0-10.4,0c-1.1,0-1.6,0.5-1.6,1.6c0,4,0,8.1,0,12.1
		c0,1,0.5,1.6,1.6,1.6c3.4,0,6.9,0,10.3,0c1.3,0,1.6-0.4,1.6-1.6C314.4,57.1,314.4,55.1,314.4,53.1z"/>
	<path class="st0" d="M383.8,105.1c-3.4,0-6.7,0-10.1,0c-0.9,0-1.1-0.2-1-1.1c0.1-1,0.1-2,0-3c-0.1-0.9,0.3-1,1.1-1
		c5.6,0,11.2,0,16.8,0c1.5,0,1.8-0.3,1.8-1.8c0-0.7,0-1.4,0-2.2c0-1.6-0.3-1.9-1.9-1.9c-4.2,0-8.4,0-12.6,0c-3.1,0-5.3-1.6-5.9-4.7
		c-0.5-2.2-0.5-4.5,0.5-6.6c1-2.1,2.7-3.2,5.1-3.2c6.7,0,13.4,0,20,0c0.7,0,1,0.2,0.9,0.9c-0.1,1.3,0.4,3-0.2,3.8
		c-0.7,0.9-2.5,0.2-3.8,0.3c-4.6,0-9.2,0-13.8,0c-1.6,0-1.9,0.3-1.9,1.9c0,0.7,0,1.4,0,2c0,1.1,0.5,1.6,1.6,1.6
		c4.2,0,8.4,0.1,12.6-0.1c4-0.2,6.2,2.9,6.4,5.9c0.1,1.8,0.2,3.7-0.5,5.4c-1,2.4-2.8,3.6-5.4,3.6C390.3,105.1,387,105.1,383.8,105.1
		z"/>
	<path class="st0" d="M417.9,40.4c3,0,6,0.1,9,0c4.8-0.2,7.8,3.9,7.9,7.8c0.1,5.6,0,11.2,0,16.8c0,0.6-0.1,0.9-0.8,0.8
		c-1.8,0-3.6-0.1-5.4,0c-0.9,0-0.9-0.4-0.9-1.1c0-5.8,0-11.5,0-17.3c0-1.8-0.2-2-2-2c-3.2,0-6.5,0-9.7,0c-1.5,0-1.8,0.3-1.8,1.8
		c0,5.8,0,11.6,0,17.4c0,0.9-0.1,1.2-1.1,1.1c-1.7-0.1-3.4-0.1-5,0c-0.7,0-1-0.1-1-1c0-7.8,0-15.7,0-23.5c0-0.8,0.3-0.9,1-0.9
		C411.4,40.5,414.7,40.4,417.9,40.4z"/>
	<path class="st0" d="M438.8,53.1c0-3.9,0-7.8,0-11.6c0-0.8,0.2-1,1-1c6.4,0,12.9,0,19.3,0c4,0,7.3,3.5,7.4,7.9
		c0.1,5.6,0,11.1,0,16.7c0,0.7-0.3,0.8-0.8,0.8c-1.8,0-3.5-0.1-5.3,0c-0.8,0-1-0.3-1-1c0-5.7,0-11.4,0-17c0-2.1-0.2-2.3-2.2-2.3
		c-3.2,0-6.4,0-9.6,0c-1.5,0-1.7,0.3-1.7,1.8c0,5.8,0,11.6,0,17.4c0,1-0.3,1.2-1.2,1.2c-1.6-0.1-3.1-0.1-4.7,0
		c-1,0.1-1.3-0.2-1.3-1.2C438.9,60.8,438.8,56.9,438.8,53.1z"/>
	<path class="st0" d="M369,92.5c0,3.8,0,7.7,0,11.5c0,0.9-0.2,1.1-1.1,1.1c-6.2,0-12.3-0.2-18.5,0c-4.5,0.1-7.9-3.4-8.1-7.6
		c-0.2-5.7-0.1-11.4-0.1-17.2c0-0.6,0.2-0.7,0.8-0.7c1.8,0,3.6,0.1,5.4,0c0.9,0,1,0.3,1,1c0,5.8,0,11.5,0,17.3c0,1.9,0.2,2.1,2,2.1
		c3.3,0,6.6,0,9.8,0c1.3,0,1.6-0.4,1.6-1.6c0-5.8,0-11.6,0-17.4c0-1.1,0.3-1.4,1.4-1.3c1.5,0.1,3,0.1,4.4,0c1.2-0.1,1.4,0.4,1.3,1.4
		C369,84.9,369,88.7,369,92.5z"/>
	<path class="st0" d="M279.4,92.4c0-3.9,0-7.8,0-11.6c0-0.8,0.2-1.1,1.1-1.1c6.1,0,12.2,0.1,18.3,0c5-0.1,8.2,3.7,8.3,8.2
		c0.1,5.5,0,11,0,16.4c0,0.7-0.2,0.9-0.9,0.9c-1.7,0-3.4-0.1-5.2,0c-0.9,0-1.1-0.2-1.1-1.1c0-5.7,0-11.4,0-17.1
		c0-1.9-0.2-2.1-2.1-2.1c-3.1,0-6.2,0-9.4,0c-1.8,0-2,0.3-2,2c0,5.8,0,11.5,0,17.3c0,0.9-0.2,1.2-1.1,1.1c-1.7-0.1-3.4-0.1-5,0
		c-0.8,0-1-0.2-1-1C279.4,100.2,279.4,96.3,279.4,92.4z"/>
	<path class="st0" d="M321.9,65.8c1.7-2.2,3.3-4.2,4.8-6.2c1.3-1.7,2.7-3.5,4-5.2c0.7-0.9,0.7-1.6,0-2.4c-2.8-3.6-5.6-7.2-8.4-10.8
		c-0.1-0.2-0.2-0.3-0.4-0.7c2.7,0,5.3,0,7.9,0c0.4,0,0.6,0.3,0.8,0.6c1.3,1.7,2.7,3.5,4,5.2c0.8,1.1,1.4,1.1,2.3,0
		c1.4-1.7,2.7-3.5,4-5.2c0.3-0.4,0.5-0.6,1.1-0.6c2.5,0,4.9,0,7.6,0c-0.3,0.5-0.5,0.8-0.8,1.1c-2.6,3.4-5.2,6.8-7.9,10.1
		c-1,1.3-1,1.5,0,2.8c2.6,3.4,5.2,6.8,7.8,10.1c0.2,0.3,0.5,0.6,0.8,1.1c-2.8,0-5.4,0-7.9,0c-0.5,0-0.7-0.4-0.9-0.7
		c-1.3-1.7-2.6-3.4-4-5.1c-0.8-1.1-1.5-1.1-2.3,0c-1.3,1.7-2.6,3.3-3.9,5c-0.4,0.6-0.9,0.8-1.6,0.8
		C326.9,65.8,324.6,65.8,321.9,65.8z"/>
	<path class="st0" d="M266.8,56.5c0-2.5,0-5,0-7.4c0-2.5,0.8-4.8,2.6-6.6c1.3-1.3,2.9-2,4.7-2c5.4,0,10.7,0,16.1,0
		c0.6,0,0.9,0.1,0.9,0.9c-0.1,1.1-0.1,2.2,0,3.2c0.1,0.8-0.2,1-1,1c-4.8,0-9.5,0-14.3,0c-1.7,0-2,0.3-2,1.9c0,0.8,0,1.5,0,2.3
		c0,1.5,0.4,1.8,1.9,1.9c4.4,0,8.7,0,13.1,0c1,0,1.3,0.3,1.2,1.2c-0.1,1,0.4,2.4-0.2,3c-0.6,0.5-1.9,0.2-2.9,0.2c-3.3,0-6.6,0-9.8,0
		c-2.1,0-3.1,0.9-3.1,3c0,2-0.1,3.9,0,5.9c0,0.9-0.3,1-1.1,1c-1.6-0.1-3.3-0.1-4.9,0c-0.8,0-1.1-0.2-1.1-1
		C266.9,62,266.8,59.3,266.8,56.5z"/>
	<path class="st0" d="M365,65.8c-2.2,0-4.5-0.1-6.7,0c-4.3,0.2-7.4-3.2-7.8-7.1c-0.4-3.7-0.4-7.5,0-11.3c0.4-3.9,3.5-7.2,7.9-7.1
		c4.8,0.1,9.5,0.1,14.3,0c0.8,0,1.1,0.2,1,1.1c-0.1,1.3,0.5,3-0.3,3.8c-0.7,0.6-2.4,0.2-3.7,0.2c-3.5,0-7,0-10.6,0
		c-1.5,0-1.8,0.3-1.8,1.7c0,3.9,0,7.8,0,11.8c0,1.5,0.3,1.8,1.7,1.8c4.5,0,9,0,13.4,0c0.9,0,1.2,0.2,1.1,1.1c-0.1,1-0.1,1.9,0,2.9
		c0.1,1-0.3,1.1-1.1,1.1C370,65.8,367.5,65.8,365,65.8z"/>
	<path class="st0" d="M415,79.7c3.9,0,7.8,0,11.7,0c0.8,0,1.1,0.2,1,1c-0.1,1-0.1,2.1,0,3.1c0.1,0.8-0.3,1-1,1c-2,0-4,0-6,0
		c-1.9,0-2.2,0.2-2.2,2.2c0,5.7,0,11.3,0,17c0,0.8-0.1,1.2-1.1,1.1c-1.6-0.1-3.3-0.1-4.9,0c-0.9,0-1.1-0.2-1.1-1.1
		c0-5.7,0-11.3,0-17c0-2.1-0.2-2.2-2.3-2.2c-2,0-4.1,0-6.1,0c-0.7,0-0.9-0.2-0.9-0.9c0.1-1.1,0.1-2.2,0-3.2c-0.1-0.8,0.3-1,1-1
		C407.2,79.7,411.1,79.7,415,79.7z"/>
	<path class="st0" d="M512.8,89.6c0,2.9,0,5.8,0,8.6c0,1.5,0.3,1.8,1.8,1.8c4.5,0,9,0,13.4,0c0.8,0,1,0.2,1,1c-0.1,1.1,0,2.2,0,3.4
		c0,0.6-0.2,0.7-0.8,0.7c-5.2,0-10.4,0-15.6,0c-3,0-5.8-2.7-6.7-6c-0.2-0.8-0.3-1.6-0.3-2.4c0-5.3,0-10.6,0-15.9
		c0-0.9,0.2-1.2,1.1-1.1c1.6,0.1,3.3,0.1,4.9,0c0.8,0,1.1,0.2,1.1,1C512.7,83.7,512.8,86.7,512.8,89.6z"/>
	<path class="st0" d="M463.2,92.5c0-3.9,0-7.8,0-11.6c0-0.9,0.1-1.2,1.1-1.2c1.7,0.1,3.4,0,5.2,0c0.6,0,0.8,0.2,0.8,0.8
		c0,8,0,15.9,0,23.9c0,0.7-0.3,0.8-0.9,0.8c-1.7,0-3.4-0.1-5.2,0c-1,0.1-1.1-0.3-1.1-1.2C463.2,100.2,463.2,96.3,463.2,92.5z"/>
	<path class="st0" d="M266.8,92.4c0-3.9,0-7.8,0-11.6c0-0.8,0.2-1.1,1-1.1c1.7,0.1,3.4,0.1,5.2,0c0.7,0,0.9,0.2,0.9,0.9
		c0,7.9,0,15.8,0,23.7c0,0.6-0.2,0.8-0.8,0.8c-1.8,0-3.5-0.1-5.3,0c-0.8,0-1-0.2-1-1C266.9,100.2,266.8,96.3,266.8,92.4z"/>
</g>
</svg>
