<?xml version="1.0" encoding="utf-8"?>
<!-- Generator: Adobe Illustrator 22.1.0, SVG Export Plug-In . SVG Version: 6.00 Build 0)  -->
<svg version="1.1" id="Layer_1" xmlns="http://www.w3.org/2000/svg" xmlns:xlink="http://www.w3.org/1999/xlink" x="0px" y="0px"
	 viewBox="0 0 448.4 320.1" style="enable-background:new 0 0 448.4 320.1;" xml:space="preserve">
<g>
	<path d="M224.2,192c-63.8,0-127.6,0-191.4,0c-13.6,0-23.8-6.2-29.5-18.5c-5.7-12.1-3.9-23.8,4.6-34.1c6.3-7.6,14.7-11.3,24.6-11.3
		c15.3-0.1,30.7,0,46,0c112.1,0,224.3,0,336.4,0c18.6,0,32.8,13.2,33.4,30.8c0.5,18.2-13.6,33.1-32,33.1c-32,0.1-64,0-96,0
		S256.2,192,224.2,192z"/>
	<path d="M224.4,256c63.8,0,127.6-0.1,191.4,0c13.6,0,23.7,6.4,29.4,18.8c5.6,12.2,3.7,23.8-4.9,34.1c-5.9,7.1-13.9,10.8-23.2,11.1
		c-5.5,0.2-11,0-16.5,0c-122.3,0-244.6,0-366.9,0c-19.3,0-33.6-13.8-33.6-32.1c0-17.5,14.1-31.8,31.8-31.9c23.7-0.1,47.3,0,71,0
		C143.4,256,183.9,256,224.4,256z"/>
	<path d="M223.7,64c-63.5,0-127,0-190.4,0c-19.1,0-33.3-14.2-33-32.6C0.5,14.7,13.9,0.8,30.5,0.1C31.7,0,32.9,0,34,0
		C161,0,288,0,414.9,0c18.3,0,32.5,13.1,33.3,30.4c0.8,18.4-13.5,33.5-32.1,33.6c-36,0.1-72,0-108,0C280,64,251.8,64,223.7,64z"/>
</g>
</svg>
