<?xml version="1.0" encoding="utf-8"?>
<!-- Generator: Adobe Illustrator 22.1.0, SVG Export Plug-In . SVG Version: 6.00 Build 0)  -->
<svg version="1.1" id="Layer_1" xmlns="http://www.w3.org/2000/svg" xmlns:xlink="http://www.w3.org/1999/xlink" x="0px" y="0px"
	 viewBox="0 0 259.5 68.5" style="enable-background:new 0 0 259.5 68.5;" xml:space="preserve">
<style type="text/css">
	.st0{fill:#FFFFFF;}
	.st1{fill:#F9FAFC;}
	.st2{fill:#264296;}
</style>
<rect class="st0" width="259.5" height="68.5"/>
<g>
	<path class="st1" d="M211.2,42.4c1.4,2.2,3.1,4.4,4,6.8c1.8,5.1,5.5,5.9,10.2,5.4c2.1-0.2,2-0.8,1-2.2c-3.1-4.8-6.2-9.7-9.4-14.5
		c-0.7-1-0.7-1.6,0.2-2.5c2-2.1,4-4.3,5.8-6.5c1.1-1.3,3.4-2.6,2.8-4c-0.5-1.1-3.1-0.2-4.7-0.4c-2.4-0.4-4,0.6-5.5,2.6
		c-1.8,2.6-3.9,5-5.9,7.4c-0.4,0.5-0.8,1.3-1.9,1.2c0-5.8,0-11.5,0-17.2c0-4.9,0-4.8-4.9-4.8c-2,0-2.6,0.5-2.5,2.5
		c0.1,11.5,0,23,0,34.5c0,4.2-0.7,3.9,3.8,3.9c4.1,0,3.7,0.4,3.6-3.6C207.7,47.6,207.7,44.4,211.2,42.4z M88.2,33.8
		c0,5.2,0,10.5,0,15.7c0,5,0,4.9,5,5c2.1,0,2.5-0.8,2.5-2.6c-0.1-5.1,0-10.2,0-15.2c0-1,0-2,0.4-2.9c1-2.1,3-3,5.4-2.6
		c2.2,0.4,3.7,2.1,3.8,4.9c0.1,4.4,0,8.8,0,13.2c0,5.5,0,5.4,5.5,5.2c1.6-0.1,1.9-0.7,1.9-2.1c-0.1-5.5,0-11-0.1-16.5
		c0-2.1,0-4.3-1-6.3c-2.5-5.1-9-7-14.1-3.9c-0.5,0.3-1,1.2-1.6,0.7c-0.4-0.3-0.3-1.2-0.3-1.9c0-1.9,0-3.8,0-5.7
		c-0.1-6,1.2-5.1-5.3-5.3c-1.9-0.1-2.2,0.7-2.2,2.3C88.3,21.8,88.2,27.8,88.2,33.8z M49,42C49,42,49,42,49,42c1.3,0,2.7,0,4,0
		c5.8,0,5.9,0,5.2-5.8c-0.5-4.9-2.7-9-7.5-10.9c-4.9-1.9-9.9-1.7-13.8,2.1c-4.8,4.7-5.4,10.8-4,16.9C35.3,54.6,48,58.4,56,51.4
		c0.5-0.5,1.6-0.9,1.1-1.7c-1-1.3-2.2-2.5-3.5-3.5c-1.2-0.9-1.9,0.6-2.7,1.1c-4.1,2.5-9.7,0.7-10.8-3.4c-0.4-1.4-0.1-2,1.4-2
		C44,42.1,46.5,42,49,42z M16.9,37.6c0,1.8,0,3.7,0,5.5c0,1.9,0,3.8,0,5.7c0,5.7,0,5.6,5.6,5.7c2.2,0,2.6-0.8,2.6-2.8
		c-0.1-8.4,0-16.8,0-25.2c0-5.8,0-5.8,5.9-5.8c4.8,0,4.8,0,4.8-5c0-1.8-0.6-2.3-2.3-2.3c-7.3,0.1-14.7,0-22,0c-5.4,0-5.3,0-5.2,5.3
		c0,1.6,0.6,2,2.1,1.9c2.2-0.1,4.3,0.1,6.5-0.1c1.7-0.1,2.2,0.6,2.2,2.2C16.9,27.8,16.9,32.7,16.9,37.6z M179,43.3
		C179,43.3,179,43.3,179,43.3c0-3.2,0.1-6.3,0-9.5c-0.1-3.8-1.8-6.8-5.4-8.3c-4.5-1.7-9.1-1.8-13.7-0.2c-4.3,1.5-4.5,2.9-1.3,5.9
		c0.1,0.1,0.3,0.2,0.4,0.3c0.8,1,1.5,1.3,2.8,0.3c2.3-1.7,5-1.6,7.6-0.7c2,0.7,2.4,2.5,2.2,4.3c-0.2,2-2,1-3,1.1
		c-2.4,0.2-4.8,0-7.2,0.5c-6.4,1.4-9.1,8.2-5.4,13.6c2.7,3.9,9.2,5.3,13.7,2.8c0.9-0.5,1.8-1.7,2.3,0.4c0.1,0.5,0.8,0.5,1.3,0.5
		c1.4,0,2.8,0,4.2,0c1.2,0.1,1.5-0.5,1.5-1.7C178.9,49.6,179,46.4,179,43.3z M139.3,37.7c0,4,0,8,0,12c0,5.6,0,5.5,5.7,5
		c1.9-0.2,2.3-0.9,2.3-2.6c-0.1-8.2,0-16.5,0-24.7c0-6.5,0-6.5,6.4-6.5c4.4,0,4.2,0,4.4-4.4c0.1-2.2-0.6-2.8-2.8-2.8
		c-7.2,0.1-14.3,0.1-21.5,0.1c-5.5,0-5.5,0-5.1,5.6c0.1,1.2,0.5,1.6,1.7,1.5c2.2-0.1,4.5,0.1,6.7-0.1c1.7-0.1,2.3,0.5,2.3,2.2
		C139.2,27.8,139.3,32.8,139.3,37.7z M239.8,54.7c3.3,0.1,6.3-0.3,9.1-1.9c3.2-1.9,4.6-4.8,4.4-8.4c-0.2-3.6-1.8-6.1-5.3-7.4
		c-2.6-0.9-5.4-1-8.1-1.3c-1.5-0.2-2.9-0.5-3-2.4c-0.1-1.9,1.3-2.6,2.9-2.8c2.4-0.3,4.7,0,6.8,1c1.1,0.6,1.9,0.3,2.6-0.5
		c0.6-0.7,1.2-1.4,1.9-2c1.3-1.1,1.1-1.9-0.3-2.6c-5.5-2.9-11.2-3.3-16.8-0.5c-3.8,1.9-5.2,5.8-4.3,10c0.8,3.4,3.6,5.6,7.9,6
		c1.8,0.2,3.6,0.3,5.5,0.5c1.6,0.2,2.8,0.8,2.8,2.6c0,1.7-1.2,2.6-2.6,2.9c-3,0.5-6,0.7-8.7-1.3c-1.5-1.1-2.5-1-3.6,0.4
		c-0.5,0.7-1.1,1.2-1.8,1.8c-1.3,1.1-1,2,0.3,2.9C232.8,54,236.3,54.8,239.8,54.7z M69.1,39.6c0.1-1.6,0.1-3.2,0.6-4.7
		c1.2-3.5,5.1-5.3,8-3c2.1,1.6,2.9,0.7,4.2-0.6c0.7-0.7,1.4-1.4,2.1-2.1c0.6-0.6,0.6-1.1,0-1.7c-5-4.8-16.6-4.5-20.4,3
		c-2.4,4.6-2.6,9.5-1.4,14.3c2.1,8.4,11,12.4,18.7,8.7c4.3-2.1,4.4-2.5,1-5.8c-0.1-0.1-0.3-0.2-0.4-0.3c-1-1.4-1.8-1.6-3.4-0.4
		C75,49.3,71,47.8,69.7,44C69.2,42.6,69.2,41.1,69.1,39.6z M191.6,30.3c0-3.9,0-7.8,0-11.7c-0.1-6.2,0.9-4.7-5.2-5.1
		c-1.7-0.1-2.3,0.5-2.3,2.3c0.1,10,0,20,0.1,29.9c0,5.5,3.2,8.6,8.7,8.7c4.4,0.1,4.3,0.1,4.3-4.2c0-1.6-0.5-2.1-2.1-2.1
		c-2.9,0-3.4-0.5-3.4-3.6C191.6,39.8,191.6,35.1,191.6,30.3z"/>
	<path class="st2" d="M211.2,42.4c-3.5,2-3.4,5.2-3.4,8.5c0.1,4,0.5,3.6-3.6,3.6c-4.5,0-3.8,0.3-3.8-3.9c0-11.5,0-23,0-34.5
		c0-2,0.6-2.6,2.5-2.5c4.9,0.1,4.9,0,4.9,4.8c0,5.7,0,11.4,0,17.2c1.1,0.1,1.5-0.6,1.9-1.2c2-2.5,4.1-4.8,5.9-7.4
		c1.4-2,3-2.9,5.5-2.6c1.6,0.2,4.2-0.7,4.7,0.4c0.6,1.4-1.7,2.7-2.8,4c-1.8,2.3-3.8,4.4-5.8,6.5c-0.9,0.9-0.9,1.5-0.2,2.5
		c3.2,4.8,6.2,9.6,9.4,14.5c0.9,1.4,1.1,2-1,2.2c-4.7,0.5-8.4-0.3-10.2-5.4C214.3,46.7,212.5,44.6,211.2,42.4z"/>
	<path class="st2" d="M88.2,33.8c0-6,0-12,0-18c0-1.6,0.3-2.4,2.2-2.3c6.4,0.2,5.1-0.7,5.3,5.3c0,1.9,0,3.8,0,5.7
		c0,0.6-0.1,1.6,0.3,1.9c0.6,0.5,1.1-0.4,1.6-0.7c5.1-3,11.6-1.2,14.1,3.9c1,2,1,4.2,1,6.3c0.1,5.5,0,11,0.1,16.5
		c0,1.4-0.3,2.1-1.9,2.1c-5.5,0.2-5.5,0.3-5.5-5.2c0-4.4,0.1-8.8,0-13.2c-0.1-2.8-1.5-4.5-3.8-4.9c-2.5-0.4-4.4,0.5-5.4,2.6
		c-0.5,0.9-0.4,1.9-0.4,2.9c0,5.1-0.1,10.2,0,15.2c0,1.9-0.4,2.7-2.5,2.6c-5-0.1-5,0.1-5-5C88.2,44.3,88.2,39.1,88.2,33.8z"/>
	<path class="st2" d="M49,42c-2.5,0-5,0.1-7.5,0c-1.6,0-1.8,0.6-1.4,2c1.1,4.1,6.7,5.9,10.8,3.4c0.8-0.5,1.5-2,2.7-1.1
		c1.3,1,2.5,2.2,3.5,3.5c0.6,0.8-0.5,1.2-1.1,1.7c-8,7-20.7,3.2-23.1-7.1c-1.4-6.2-0.9-12.3,4-16.9c3.9-3.8,8.9-4,13.8-2.1
		c4.9,1.9,7,5.9,7.5,10.9C58.9,42,58.8,42,53,42C51.7,42,50.4,42,49,42C49,42,49,42,49,42z M45.5,36.7c1.2,0,2.3-0.1,3.5,0
		c1.9,0.2,2.1-0.7,1.7-2.3c-0.6-2.2-2.5-3.8-4.9-3.9c-2.5-0.1-4.4,0.9-5.4,3.2c-1,2.4-0.7,2.9,1.9,2.9
		C43.3,36.7,44.4,36.7,45.5,36.7z"/>
	<path class="st2" d="M16.9,37.6c0-4.9,0-9.8,0-14.7c0-1.6-0.5-2.3-2.2-2.2c-2.2,0.1-4.3,0-6.5,0.1c-1.4,0.1-2-0.3-2.1-1.9
		c-0.1-5.3-0.2-5.3,5.2-5.3c7.3,0,14.7,0,22,0c1.7,0,2.3,0.5,2.3,2.3c0,5,0.1,5-4.8,5c-5.9,0-5.9,0-5.9,5.8c0,8.4,0,16.8,0,25.2
		c0,2-0.4,2.8-2.6,2.8c-5.6-0.1-5.6,0-5.6-5.7c0-1.9,0-3.8,0-5.7C16.9,41.3,16.9,39.4,16.9,37.6z"/>
	<path class="st2" d="M179,43.3c0,3.2,0,6.3,0,9.5c0,1.1-0.3,1.7-1.5,1.7c-1.4-0.1-2.8,0-4.2,0c-0.5,0-1.2,0-1.3-0.5
		c-0.5-2.1-1.4-0.9-2.3-0.4c-4.5,2.5-11,1.2-13.7-2.8c-3.7-5.4-1-12.2,5.4-13.6c2.4-0.5,4.8-0.3,7.2-0.5c1-0.1,2.8,0.9,3-1.1
		c0.2-1.8-0.2-3.6-2.2-4.3c-2.6-1-5.4-1-7.6,0.7c-1.3,1-2,0.7-2.8-0.3c-0.1-0.1-0.2-0.2-0.4-0.3c-3.2-3.1-3-4.4,1.3-5.9
		c4.5-1.6,9.2-1.5,13.7,0.2c3.6,1.4,5.3,4.4,5.4,8.3C179,36.9,178.9,40.1,179,43.3C179,43.3,179,43.3,179,43.3z M167.7,41.9
		C167.7,41.9,167.7,41.9,167.7,41.9c-1.2,0-2.3,0-3.5,0.2c-1.6,0.3-2.5,1.3-2.5,3c0,1.7,0.7,2.8,2.5,3.2c1.6,0.4,3.2,0.3,4.7-0.1
		c2-0.6,3.1-2.7,2.8-5c-0.3-2.2-2.1-0.9-3.2-1.2C168.2,41.9,167.9,41.9,167.7,41.9z"/>
	<path class="st2" d="M139.3,37.7c0-4.9-0.1-9.8,0-14.7c0-1.8-0.5-2.3-2.3-2.2c-2.2,0.1-4.5,0-6.7,0.1c-1.1,0-1.6-0.3-1.7-1.5
		c-0.4-5.6-0.4-5.6,5.1-5.6c7.2,0,14.3,0.1,21.5-0.1c2.2,0,2.9,0.6,2.8,2.8c-0.1,4.4,0,4.4-4.4,4.4c-6.4,0-6.4,0-6.4,6.5
		c0,8.2,0,16.5,0,24.7c0,1.7-0.4,2.4-2.3,2.6c-5.7,0.6-5.7,0.7-5.7-5C139.3,45.7,139.3,41.7,139.3,37.7z"/>
	<path class="st2" d="M239.8,54.7c-3.6,0.2-7.1-0.6-10.2-2.8c-1.3-0.9-1.6-1.8-0.3-2.9c0.6-0.5,1.3-1.1,1.8-1.8
		c1.1-1.4,2.1-1.5,3.6-0.4c2.6,1.9,5.7,1.7,8.7,1.3c1.5-0.2,2.7-1.1,2.6-2.9c0-1.8-1.2-2.4-2.8-2.6c-1.8-0.2-3.6-0.3-5.5-0.5
		c-4.3-0.4-7.2-2.6-7.9-6c-0.9-4.1,0.5-8.1,4.3-10c5.6-2.8,11.2-2.4,16.8,0.5c1.4,0.7,1.6,1.5,0.3,2.6c-0.7,0.6-1.3,1.3-1.9,2
		c-0.8,0.8-1.5,1.1-2.6,0.5c-2.1-1.1-4.5-1.4-6.8-1c-1.6,0.2-3,0.9-2.9,2.8c0.1,1.8,1.5,2.2,3,2.4c2.7,0.3,5.5,0.3,8.1,1.3
		c3.5,1.3,5.1,3.8,5.3,7.4c0.2,3.6-1.2,6.5-4.4,8.4C246.2,54.4,243.2,54.8,239.8,54.7z"/>
	<path class="st2" d="M69.1,39.6c0.1,1.5,0.1,3,0.6,4.4c1.3,3.8,5.3,5.3,8.4,2.9c1.6-1.2,2.4-1,3.4,0.4c0.1,0.1,0.2,0.2,0.4,0.3
		c3.4,3.3,3.3,3.7-1,5.8c-7.8,3.7-16.6-0.2-18.7-8.7c-1.2-4.9-0.9-9.7,1.4-14.3c3.9-7.5,15.4-7.8,20.4-3c0.6,0.6,0.7,1.1,0,1.7
		c-0.7,0.7-1.4,1.4-2.1,2.1c-1.2,1.3-2.1,2.2-4.2,0.6c-2.9-2.2-6.8-0.4-8,3C69.2,36.4,69.2,38,69.1,39.6z"/>
	<path class="st2" d="M191.6,30.3c0,4.7,0,9.5,0,14.2c0,3,0.5,3.6,3.4,3.6c1.6,0,2.1,0.5,2.1,2.1c0,4.3,0.1,4.3-4.3,4.2
		c-5.5-0.1-8.6-3.2-8.7-8.7c0-10,0-20-0.1-29.9c0-1.8,0.6-2.4,2.3-2.3c6.1,0.4,5.1-1.2,5.2,5.1C191.6,22.5,191.6,26.4,191.6,30.3z"
		/>
	<path class="st1" d="M45.5,36.7c-1.1,0-2.2,0-3.2,0c-2.5,0-2.9-0.6-1.9-2.9c1-2.4,2.9-3.3,5.4-3.2c2.4,0.1,4.3,1.7,4.9,3.9
		c0.4,1.5,0.1,2.4-1.7,2.3C47.8,36.6,46.7,36.7,45.5,36.7z"/>
	<path class="st1" d="M167.7,41.9c0.2,0,0.5-0.1,0.7,0c1.1,0.4,2.8-1,3.2,1.2c0.3,2.3-0.8,4.4-2.8,5c-1.5,0.4-3.1,0.5-4.7,0.1
		c-1.7-0.4-2.5-1.5-2.5-3.2c0-1.6,0.9-2.7,2.5-3C165.3,41.9,166.5,41.9,167.7,41.9C167.7,41.9,167.7,41.9,167.7,41.9z"/>
</g>
</svg>
